<svg xmlns="http://www.w3.org/2000/svg" width="1388" height="756" viewBox="0 0 1388 756">
<g>
<path d="M 419.89 598.75 L 358.30 536.50 L 699.32 536.25 C886.87,536.11 1040.57,536.24 1040.87,536.54 C1041.17,536.84 1013.53,564.96 979.46,599.04 L 917.51 661.00 L 699.49 661.00 L 481.48 661.00 L 419.89 598.75 ZM 880.99 646.25 C880.98,645.34 709.63,552.00 707.96,552.00 C706.23,552.00 521.05,645.36 521.02,646.25 C521.01,646.66 602.00,647.00 701.00,647.00 C800.00,647.00 881.00,646.66 880.99,646.25 ZM 581.00 598.50 C632.15,572.92 674.00,551.77 674.00,551.50 C674.00,551.22 610.91,551.00 533.79,551.00 L 393.58 551.00 L 440.04 597.86 C465.59,623.63 486.84,644.78 487.25,644.86 C487.67,644.94 529.85,624.07 581.00,598.50 ZM 959.50 598.00 L 1006.49 551.00 L 873.05 551.00 C798.98,551.00 740.02,551.38 740.55,551.86 C741.07,552.33 759.28,562.42 781.00,574.29 C880.67,628.74 910.57,644.93 911.50,644.96 C912.06,644.98 933.65,623.85 959.50,598.00 ZM 456.00 521.57 C456.00,520.66 493.05,456.83 607.53,260.50 C698.83,103.95 707.04,90.00 708.00,90.00 C708.45,90.00 720.05,109.24 733.78,132.75 C747.51,156.26 787.60,224.92 822.87,285.32 C858.14,345.72 887.00,395.55 887.00,396.06 C887.00,396.61 866.82,397.09 837.44,397.24 L 787.89 397.50 L 820.19 417.47 C837.96,428.46 870.28,448.65 892.00,462.35 C913.72,476.05 934.49,489.12 938.15,491.38 C944.26,495.16 945.28,496.32 950.61,505.50 C953.80,511.00 957.26,516.96 958.30,518.75 L 960.20 522.00 L 708.10 522.00 C569.44,522.00 456.00,521.81 456.00,521.57 ZM 701.00 454.50 C701.00,425.62 700.78,402.00 700.51,402.00 C700.25,402.00 672.91,416.34 639.76,433.86 C606.62,451.39 562.40,474.63 541.50,485.51 C520.60,496.39 503.07,505.67 502.55,506.14 C502.02,506.62 546.01,507.00 601.30,507.00 L 701.00 507.00 L 701.00 454.50 ZM 931.47 505.13 C929.23,503.01 858.79,458.67 787.46,414.49 C761.08,398.15 738.84,384.16 738.04,383.39 C736.78,382.20 745.68,382.00 799.29,382.00 C833.78,382.00 862.00,381.76 862.00,381.47 C862.00,380.57 817.90,305.57 816.66,304.37 C815.79,303.53 804.74,312.87 772.50,341.72 C748.85,362.88 727.57,381.91 725.21,384.01 L 720.91 387.83 L 749.71 405.78 C765.54,415.65 792.45,432.39 809.50,442.98 C864.16,476.94 871.00,481.27 870.98,481.89 C870.97,482.23 851.05,487.41 826.73,493.40 C802.40,499.40 780.70,504.87 778.50,505.56 C775.23,506.58 788.94,506.82 853.97,506.90 C931.63,507.00 933.40,506.96 931.47,505.13 ZM 775.76 490.86 C806.97,483.08 832.82,476.44 833.22,476.09 C833.61,475.75 826.64,470.92 817.72,465.36 C748.10,421.97 715.87,402.00 715.47,402.00 C715.21,402.00 715.00,425.17 715.00,453.50 C715.00,504.39 715.02,505.00 717.01,505.00 C718.11,505.00 744.55,498.64 775.76,490.86 ZM 528.93 475.33 C599.98,438.21 693.48,388.90 694.24,388.16 C694.64,387.76 673.61,368.46 647.51,345.27 L 600.05 303.12 L 598.17 305.81 C596.51,308.19 564.46,363.11 506.66,462.62 C496.40,480.29 488.00,495.03 488.00,495.37 C488.00,495.72 488.30,496.00 488.68,496.00 C489.05,496.00 507.16,486.70 528.93,475.33 ZM 701.00 252.50 C701.00,186.23 700.66,132.01 700.25,132.01 C699.84,132.02 697.21,135.96 694.42,140.76 C691.62,145.57 670.97,180.96 648.52,219.41 C619.81,268.59 607.98,289.72 608.61,290.68 C609.45,291.96 700.13,373.00 700.72,373.00 C700.87,373.00 701.00,318.77 701.00,252.50 ZM 745.60 346.29 C788.96,307.72 806.40,291.99 807.38,290.61 C807.97,289.78 793.48,264.04 763.07,211.94 C738.22,169.35 717.24,133.84 716.44,133.04 C715.19,131.76 715.00,146.98 715.00,251.79 C715.00,317.90 715.38,372.00 715.85,372.00 C716.32,372.00 729.71,360.43 745.60,346.29 Z" fill="rgba(253,253,253,1)"/>
</g>
</svg>